<svg xmlns="http://www.w3.org/2000/svg" version="1.1" xmlns:xlink="http://www.w3.org/1999/xlink" xmlns:svgjs="http://svgjs.dev/svgjs" width="1000" height="368" viewBox="0 0 1000 368"><g transform="matrix(1,0,0,1,-0.6060375290097113,0.175535138600452)"><svg viewBox="0 0 396 146" data-background-color="#ffffff" preserveAspectRatio="xMidYMid meet" height="368" width="1000" xmlns="http://www.w3.org/2000/svg" xmlns:xlink="http://www.w3.org/1999/xlink"><defs></defs><g id="tight-bounds" transform="matrix(1,0,0,1,0.2399908614878541,-0.06964165824909685)"><svg viewBox="0 0 395.52 146.1392833164982" height="146.1392833164982" width="395.52"><g><svg viewBox="0 0 395.52 146.1392833164982" height="146.1392833164982" width="395.52"><g><svg viewBox="0 0 395.52 146.1392833164982" height="146.1392833164982" width="395.52"><g><svg viewBox="0 0 395.52 146.1392833164982" height="146.1392833164982" width="395.52"><g><svg viewBox="0 0 395.52 81.52666207845836" height="81.52666207845836" width="395.52"><g transform="matrix(1,0,0,1,0,0)"><svg width="395.52" viewBox="1 -29.450000762939453 145.2899932861328 29.950000762939453" height="81.52666207845836" data-palette-color="#4685b0"><path d="M20.65 0L14.05 0 14-24.65 1-24.65 1-29.45 33.7-29.45 33.7-24.65 20.65-24.65 20.65 0ZM36 0L28.7 0 43.35-29.4 53.2-29.4 67.8 0 60.1 0 57.15-6.35 39.25-6.35 36 0ZM47.95-24.9L41.05-11.25 55.3-11.25 48.45-24.9 47.95-24.9ZM75.09 0L67.8 0 82.45-29.4 92.3-29.4 106.9 0 99.2 0 96.25-6.35 78.34-6.35 75.09 0ZM87.05-24.9L80.15-11.25 94.4-11.25 87.55-24.9 87.05-24.9ZM142.24 0.5L142.24 0.5Q139.79 0.5 137.99-0.5 136.19-1.5 134.44-3.2L134.44-3.2Q132.54-5.2 129.84-7.8L129.84-7.8Q128.59-9.1 127.29-9.95 125.99-10.8 124.37-11.25 122.74-11.7 120.34-11.7L120.34-11.7 117.99-11.7 117.99 0 111.39 0 111.39-25.4 110.89-29.4 117.99-29.4 117.99-16.6 120.79-16.6Q121.79-16.6 122.44-16.85 123.09-17.1 123.64-17.65L123.64-17.65Q125.04-19.05 126.84-21.15 128.64-23.25 130.37-25.48 132.09-27.7 133.34-29.4L133.34-29.4 141.44-29.4 139.39-26.4Q137.99-24.95 136.39-23.25 134.79-21.55 133.24-19.93 131.69-18.3 130.44-17.07 129.19-15.85 128.59-15.3L128.59-15.3Q129.94-14.85 131.07-14.15 132.19-13.45 133.84-12.1L133.84-12.1Q135.09-11.1 136.27-10.05 137.44-9 138.99-7.55L138.99-7.55Q140.74-5.95 142.29-5.2 143.84-4.45 144.92-4.25 145.99-4.05 146.29-4.05L146.29-4.05 145.29 0Q145.14 0.15 144.39 0.33 143.64 0.5 142.24 0.5Z" opacity="1" transform="matrix(1,0,0,1,0,0)" fill="#4685b0" class="undefined-text-0" data-fill-palette-color="primary" id="text-0"></path></svg></g></svg></g><g transform="matrix(1,0,0,1,0,100.7731503552925)"><svg viewBox="0 0 232.20979200000002 45.3661329612057" height="45.3661329612057" width="232.20979200000002"><g transform="matrix(1,0,0,1,0,0)"><svg width="232.20979200000002" viewBox="3.0999999046325684 -35 179.12998962402344 35" height="45.3661329612057" data-palette-color="#4685b0"><path d="M21.65 0L3.1 0 3.1-4.65 17-25.95 17-28.6Q17-29.35 16.48-29.88 15.95-30.4 15.25-30.4L15.25-30.4 9.55-30.4Q8.8-30.4 8.28-29.88 7.75-29.35 7.75-28.6L7.75-28.6 7.75-24.9 3.1-25.95 3.1-31.45Q3.1-32.9 4.15-33.95 5.2-35 6.7-35L6.7-35 18.1-35Q19.55-35 20.6-33.95 21.65-32.9 21.65-31.45L21.65-31.45 21.65-24.9 8.8-4.65 21.65-4.65 21.65 0ZM42.4 0L37.75 0 37.75-12.4 23.85-12.4 23.85-17.05 37.75-35 42.4-35 42.4-17.05 43.85-17.05 44.95-12.4 42.4-12.4 42.4 0ZM37.75-27.4L29.7-17.05 37.75-17.05 37.75-27.4ZM52.7 0L48.05 0 62-35 66.65-35 52.7 0ZM75.39 0L70.74 0 82.84-30.35 70.74-30.35 70.74-35 89.34-35 75.39 0ZM96.59 0L91.94 0 105.89-35 110.54-35 96.59 0ZM129.64 0L118.24 0Q116.74 0 115.69-1.05 114.64-2.1 114.64-3.6L114.64-3.6 114.64-10.15 119.29-9.05 119.29-6.45Q119.29-5.7 119.81-5.18 120.34-4.65 121.09-4.65L121.09-4.65 126.79-4.65Q127.49-4.65 128.04-5.18 128.59-5.7 128.59-6.45L128.59-6.45 128.59-15.25Q128.59-16 128.04-16.53 127.49-17.05 126.79-17.05L126.79-17.05 122.19-17.05 123.24-21.7 126.79-21.7Q127.49-21.7 128.04-22.23 128.59-22.75 128.59-23.5L128.59-23.5 128.59-28.6Q128.59-29.3 128.04-29.83 127.49-30.35 126.79-30.35L126.79-30.35 120.94-30.35 120.94-30.4Q120.24-30.35 119.76-29.83 119.29-29.3 119.29-28.6L119.29-28.6 119.29-23.85 114.64-24.9 114.64-31.45Q114.64-32.9 115.69-33.95 116.74-35 118.24-35L118.24-35 129.64-35Q131.09-35 132.14-33.95 133.19-32.9 133.19-31.45L133.19-31.45 133.19-20.65Q133.19-19.9 132.99-19.35L132.99-19.35Q133.19-18.8 133.19-18.1L133.19-18.1 133.19-3.6Q133.19-2.1 132.14-1.05 131.09 0 129.64 0L129.64 0ZM154.39 0L142.99 0Q141.49 0 140.44-1.05 139.39-2.1 139.39-3.6L139.39-3.6 139.39-31.4Q139.39-32.9 140.44-33.95 141.49-35 142.99-35L142.99-35 154.39-35Q155.84-35 156.91-33.95 157.99-32.9 157.99-31.4L157.99-31.4 157.99-25.95 153.34-24.85 153.34-28.55Q153.34-29.3 152.81-29.83 152.29-30.35 151.54-30.35L151.54-30.35 145.84-30.35Q145.09-30.35 144.56-29.83 144.04-29.3 144.04-28.55L144.04-28.55 144.04-21.7 154.39-21.7Q155.84-21.7 156.91-20.65 157.99-19.6 157.99-18.1L157.99-18.1 157.99-3.6Q157.99-2.1 156.91-1.05 155.84 0 154.39 0L154.39 0ZM145.84-4.65L145.84-4.65 151.54-4.65Q152.29-4.65 152.81-5.18 153.34-5.7 153.34-6.45L153.34-6.45 153.34-15.25Q153.34-16 152.81-16.53 152.29-17.05 151.54-17.05L151.54-17.05 145.84-17.05Q145.09-17.05 144.56-16.53 144.04-16 144.04-15.25L144.04-15.25 144.04-6.45Q144.04-5.7 144.56-5.18 145.09-4.65 145.84-4.65ZM178.68 0L167.23 0Q165.78 0 164.73-1.05 163.68-2.1 163.68-3.55L163.68-3.55 163.68-10.15 168.33-9 168.33-6.45Q168.33-5.7 168.86-5.18 169.38-4.65 170.13-4.65L170.13-4.65 175.78-4.65Q176.53-4.65 177.06-5.18 177.58-5.7 177.58-6.45L177.58-6.45 177.58-15.2Q177.58-15.95 177.06-16.48 176.53-17 175.78-17L175.78-17 167.23-17Q165.78-17 164.73-18.05 163.68-19.1 163.68-20.6L163.68-20.6 163.68-35 182.23-35 182.23-30.35 168.33-30.35 168.33-23.45Q168.33-22.7 168.86-22.18 169.38-21.65 170.13-21.65L170.13-21.65 178.68-21.65Q180.13-21.65 181.18-20.6 182.23-19.55 182.23-18.1L182.23-18.1 182.23-3.55Q182.23-2.1 181.18-1.05 180.13 0 178.68 0L178.68 0Z" opacity="1" transform="matrix(1,0,0,1,0,0)" fill="#4685b0" class="undefined-text-1" data-fill-palette-color="secondary" id="text-1"></path></svg></g></svg></g></svg></g></svg></g></svg></g></svg><rect width="395.52" height="146.1392833164982" fill="none" stroke="none" visibility="hidden"></rect></g></svg></g></svg>